<svg xmlns="http://www.w3.org/2000/svg" width="24" height="24" fill="currentColor" viewBox="0 0 24 24">
  <path d="M1.22 13.875l1.103-1.38-1.64-.546.633-1.898L3 10.613V9h2v1.613l1.684-.562.632 1.898-1.64.546 1.105 1.38-1.562 1.25L4 13.6l-1.22 1.524-1.56-1.25zM10.323 12.495l-1.104 1.38 1.562 1.25L12 13.6l1.218 1.524 1.562-1.25-1.104-1.38 1.64-.546-.633-1.898-1.684.562V9h-2v1.613l-1.684-.562-.632 1.898 1.64.546zM18.323 12.495l-1.104 1.38 1.562 1.25L20 13.6l1.218 1.524 1.562-1.25-1.104-1.38 1.64-.546-.633-1.898-1.684.562V9h-2v1.613l-1.684-.562-.632 1.898 1.64.546z"/>
</svg>
