<svg xmlns="http://www.w3.org/2000/svg" width="24" height="24" fill="currentColor" viewBox="0 0 24 24">
  <path fill-rule="evenodd" d="M2 3a1 1 0 011-1h4a1 1 0 011 1v4a1 1 0 01-1 1H3a1 1 0 01-1-1V3zm2 1v2h2V4H4zM16 3a1 1 0 011-1h4a1 1 0 011 1v4a1 1 0 01-1 1h-4a1 1 0 01-1-1V3zm2 1v2h2V4h-2zM3 16a1 1 0 00-1 1v4a1 1 0 001 1h4a1 1 0 001-1v-4a1 1 0 00-1-1H3zm1 4v-2h2v2H4z" clip-rule="evenodd"/>
  <path d="M10 2h2v2h-2V2zM12 6V4h2v4h-2v2h-2V6h2z"/>
  <path fill-rule="evenodd" d="M10 12v-2H6v2H4v-2H2v2h2v2h4v2h4v2h-2v4h2v-2h4v2h2v-2h4v-2h-4v-2h2v-2h2v-2h-2v-2h-4V8h-2v2h-2v2h-2zm4 0h-2v4h2v2h2v2h2v-2h-2v-2h2v-2h2v-2h-2v2h-2v2h-2v-4zm0 0h2v-2h-2v2zm-4 0v2H8v-2h2z" clip-rule="evenodd"/>
</svg>
