<svg xmlns="http://www.w3.org/2000/svg" width="24" height="24" fill="currentColor" viewBox="0 0 24 24">
  <path d="M17 3h-4V1h4v2z"/>
  <path fill-rule="evenodd" d="M4.938 6.236C5.353 5.624 6.024 5 7 5h10c.977 0 1.648.624 2.062 1.236.418.617.703 1.395.903 2.126.314 1.152.465 2.38.515 3.135.151.13.331.299.513.5C21.43 12.483 22 13.3 22 14.334V21a1 1 0 01-1 1h-4a1 1 0 01-1-1v-1H8v1a1 1 0 01-1 1H3a1 1 0 01-1-1v-5.976V14.332c0-1.034.571-1.851 1.007-2.335.182-.202.362-.37.513-.5.05-.756.2-1.983.515-3.136.2-.73.485-1.509.903-2.126zm15.06 8.044l-2.314.771a1 1 0 00.632 1.898L20 16.387V20h-2v-2H6v2H4v-3.613l1.684.562a1 1 0 10.632-1.898l-2.314-.771c.02-.287.196-.616.491-.944.121-.135.245-.249.347-.336h14.32c.102.087.226.201.347.336.295.328.471.657.491.944zM5.573 11h12.854a14.549 14.549 0 00-.392-2.112c-.175-.644-.39-1.179-.628-1.53C17.165 7 17.023 7 17 7H7c-.023 0-.165.001-.406.358-.239.351-.453.886-.63 1.53-.199.732-.322 1.505-.39 2.112z" clip-rule="evenodd"/>
  <path d="M7 3h4V1H7v2z"/>
</svg>
