<svg xmlns="http://www.w3.org/2000/svg" width="24" height="24" fill="currentColor" viewBox="0 0 24 24">
  <path d="M11.522 7.546a.5.5 0 01.956 0l.594 1.921a.5.5 0 00.477.353h1.973a.5.5 0 01.303.897l-1.638 1.252a.5.5 0 00-.174.545l.615 1.991a.5.5 0 01-.78.545l-1.544-1.179a.5.5 0 00-.607 0l-1.544 1.18a.5.5 0 01-.781-.546l.615-1.991a.5.5 0 00-.174-.545l-1.638-1.252a.5.5 0 01.303-.897h1.973a.5.5 0 00.478-.353l.593-1.921z"/>
  <path fill-rule="evenodd" d="M12.476 2.37a1.022 1.022 0 00-1.013 0c-.08.045-.161.089-.243.13-.5.25-1.25.5-2.25.5s-2-.25-2.75-.5c-.22-.073-.438-.155-.654-.24a1.005 1.005 0 00-1.079.222l-1.86 1.86a1.003 1.003 0 00-.08 1.324c.147.19.29.384.423.584.5.75 1 1.75 1 2.75s-.25 1.5-.5 2l-.02.037a4.673 4.673 0 00-.328.787A4.052 4.052 0 002.97 13c0 3.499 2.248 5.749 4.5 7.125a16.54 16.54 0 003.093 1.453 15.963 15.963 0 001.15.358l.257.068.256-.068c.04-.01.083-.023.13-.036.246-.068.598-.173 1.02-.322a16.541 16.541 0 003.094-1.453c2.251-1.376 4.5-3.626 4.5-7.125 0-.46-.052-.833-.153-1.176a4.674 4.674 0 00-.329-.787L20.47 11c-.25-.5-.5-1-.5-2s.5-2 1-2.75c.133-.2.275-.393.421-.584a1.003 1.003 0 00-.079-1.323l-1.86-1.86a1.007 1.007 0 00-1.08-.222c-.215.084-.433.166-.652.239-.75.25-1.75.5-2.75.5s-1.75-.25-2.25-.5a5.327 5.327 0 01-.244-.13zm.236 17.322c-.293.103-.546.182-.742.239-.197-.057-.45-.136-.743-.24a14.548 14.548 0 01-2.715-1.272C6.535 17.21 4.97 15.495 4.97 13c0-.304.033-.482.07-.608.04-.137.097-.255.21-.482l.008-.016c.307-.613.712-1.441.712-2.894 0-1.592-.761-2.994-1.327-3.845l.805-.805c.045.016.092.032.14.047.849.284 2.08.603 3.382.603 1.26 0 2.265-.298 3-.641.734.343 1.739.641 3 .641 1.302 0 2.532-.32 3.382-.603l.14-.047.804.805C18.73 6.006 17.97 7.408 17.97 9c0 1.453.404 2.281.71 2.894l.009.016c.113.227.17.345.21.482.037.126.07.304.07.608 0 2.495-1.565 4.21-3.542 5.419a14.547 14.547 0 01-2.715 1.273z" clip-rule="evenodd"/>
</svg>
