<svg xmlns="http://www.w3.org/2000/svg" width="64" height="9" fill="currentColor" viewBox="0 0 64 9">
  <path d="M5.206 1.78V.96H.746V8h4.46v-.82h-3.57V4.79h3.38v-.81h-3.38v-2.2h3.57zm1.348 1.18V8h.86V5.03c0-1.01.69-1.4 1.34-1.4.68 0 1.18.4 1.18 1.32V8h.86V4.83c0-1.39-.9-1.98-1.88-1.98-.76 0-1.29.36-1.53.7v-.59h-.83zm6.813 3.47v-2.7h1.11v-.77h-1.11V1.62h-.86v1.34h-.84v.77h.84v2.74c0 1.05.51 1.53 1.49 1.53h.48v-.77h-.34c-.42 0-.77-.14-.77-.8zm6.431-.69V5.3c0-1.5-.86-2.45-2.2-2.45-1.38 0-2.37 1-2.37 2.63 0 1.62.98 2.63 2.44 2.63 1.31 0 1.94-.82 2.07-1.41h-.87c-.09.26-.49.64-1.19.64-.93 0-1.55-.68-1.55-1.58v-.02h3.67zm-2.22-2.12c.81 0 1.31.52 1.35 1.39h-2.79c.07-.82.6-1.39 1.44-1.39zm5.84-.68c-.68 0-1.24.24-1.59.79v-.77h-.83V8h.86V5.23c0-1 .68-1.48 1.56-1.48h.26v-.81h-.26zm2.664 3.49v-2.7h1.11v-.77h-1.11V1.62h-.86v1.34h-.84v.77h.84v2.74c0 1.05.51 1.53 1.49 1.53h.48v-.77h-.34c-.42 0-.77-.14-.77-.8zm5.25-1.77V5h-1.34c-1.23 0-1.98.59-1.98 1.56 0 .96.76 1.55 1.74 1.55.64 0 1.24-.24 1.62-.71V8h.81V4.66c0-1.13-.79-1.81-1.97-1.81-1.15 0-1.85.65-2.01 1.43h.83c.14-.37.5-.67 1.16-.67.65 0 1.14.35 1.14 1.05zm-1.47 2.7c-.56 0-.98-.28-.98-.81 0-.54.47-.82 1.16-.82h1.29v.37c0 .77-.67 1.26-1.47 1.26zm4.632-4.4h-.86V8h.86V2.96zm-.43-2.11c-.33 0-.59.25-.59.58 0 .33.26.58.59.58.33 0 .59-.25.59-.58 0-.33-.26-.58-.59-.58zm1.933 2.11V8h.86V5.03c0-1.01.69-1.4 1.34-1.4.68 0 1.18.4 1.18 1.32V8h.86V4.83c0-1.39-.9-1.98-1.88-1.98-.76 0-1.29.36-1.53.7v-.59h-.83zm11.123-.11c-.79 0-1.39.42-1.66.84-.33-.58-.93-.84-1.51-.84-.63 0-1.18.32-1.43.7v-.59h-.83V8h.86V4.91c0-.85.59-1.28 1.21-1.28.6 0 1.11.36 1.11 1.25V8h.86V4.91c0-.85.59-1.28 1.21-1.28.6 0 1.11.36 1.11 1.25V8h.86V4.77c0-1.36-.91-1.92-1.79-1.92zm7.512 2.89V5.3c0-1.5-.86-2.45-2.2-2.45-1.38 0-2.37 1-2.37 2.63 0 1.62.98 2.63 2.44 2.63 1.31 0 1.94-.82 2.07-1.41h-.87c-.09.26-.49.64-1.19.64-.93 0-1.55-.68-1.55-1.58v-.02h3.67zm-2.22-2.12c.81 0 1.31.52 1.35 1.39h-2.79c.07-.82.6-1.39 1.44-1.39zm3.42-.66V8h.86V5.03c0-1.01.69-1.4 1.34-1.4.68 0 1.18.4 1.18 1.32V8h.86V4.83c0-1.39-.9-1.98-1.88-1.98-.76 0-1.29.36-1.53.7v-.59h-.83zm6.812 3.47v-2.7h1.11v-.77h-1.11V1.62h-.86v1.34h-.84v.77h.84v2.74c0 1.05.51 1.53 1.49 1.53h.48v-.77h-.34c-.42 0-.77-.14-.77-.8z"/>
</svg>
