<svg xmlns="http://www.w3.org/2000/svg" width="24" height="24" fill="currentColor" viewBox="0 0 24 24">
  <path fill-rule="evenodd" d="M12 2a1 1 0 01.825.435l1.562 2.28 2.651.78a1 1 0 01.51 1.57l-1.685 2.19.075 2.763a1 1 0 01-1.334.97L12 12.06l-2.604.926a1 1 0 01-1.335-.97l.076-2.762-1.685-2.19a1 1 0 01.51-1.57l2.65-.78 1.563-2.28A1 1 0 0112 2zm0 2.769l-.939 1.37a1 1 0 01-.542.393l-1.592.47 1.012 1.315a1 1 0 01.207.638l-.045 1.659 1.564-.556a1 1 0 01.67 0l1.564.556-.045-1.66a1 1 0 01.207-.637l1.012-1.315-1.593-.47a1 1 0 01-.542-.394L12 4.768z" clip-rule="evenodd"/>
  <path d="M3 3v2h2V3H3zM19 3v2h2V3h-2zM20 18v2h2v-2h-2zM2 20v-2h2v2H2z"/>
  <path fill-rule="evenodd" d="M20 12v2h2v-2h2v-2h-2V8h-2v2h-2v2h2zm0 0v-2h2v2h-2z" clip-rule="evenodd"/>
  <path d="M2 14v-2h2v2H2zM4 10h2v2H4v-2zM2 10V8h2v2H2zM2 10H0v2h2v-2zM11 14v8h2v-8h-2zM18.832 16.555l-.992 1.488a5 5 0 00-.84 2.774V22h-2v-1.183a7 7 0 011.176-3.883l.992-1.489 1.664 1.11zM6.16 18.043l-.992-1.488 1.664-1.11.992 1.489A7 7 0 019 20.817V22H7v-1.183a5 5 0 00-.84-2.774z"/>
</svg>
