<svg xmlns="http://www.w3.org/2000/svg" width="24" height="24" fill="currentColor" viewBox="0 0 24 24">
  <path fill-rule="evenodd" d="M11 2a5 5 0 100 10 5 5 0 000-10zM8 7a3 3 0 116 0 3 3 0 01-6 0z" clip-rule="evenodd"/>
  <path d="M11.5 13C6.09 13 3 17.598 3 22h2c0-3.598 2.473-7 6.5-7 .878 0 1.666.157 2.364.43l.73-1.86A8.424 8.424 0 0011.5 13zM18.086 19.5l-2.793-2.793 1.414-1.414 2.793 2.793 2.793-2.793 1.414 1.414-2.793 2.793 2.793 2.793-1.414 1.414-2.793-2.793-2.793 2.793-1.414-1.414 2.793-2.793z"/>
</svg>
