<svg xmlns="http://www.w3.org/2000/svg" width="24" height="24" fill="currentColor" viewBox="0 0 24 24">
  <path d="M12 2A10 10 0 002 12v10h2V12a8 8 0 0116 0v10h2V12A10 10 0 0012 2z"/>
  <path fill-rule="evenodd" d="M12 6c0 .578-.281 1.59-1.056 2.453C10.202 9.278 8.974 10 7 10H6v5a6 6 0 0012 0V9.72l-.758-.19c-.476-.12-1.328-.548-2.057-1.234C14.459 7.614 14 6.817 14 6h-2zm.431 3.79a6.33 6.33 0 00.643-.85c.231.3.484.572.741.814A7.89 7.89 0 0016 11.206V15a4 4 0 01-8 0v-3.052c2.001-.215 3.454-1.072 4.431-2.158z" clip-rule="evenodd"/>
</svg>
