<svg xmlns="http://www.w3.org/2000/svg" width="24" height="24" fill="currentColor" viewBox="0 0 24 24">
  <path fill-rule="evenodd" d="M4 7a5 5 0 1110 0A5 5 0 014 7zm5-3a3 3 0 100 6 3 3 0 000-6z" clip-rule="evenodd"/>
  <path d="M1 22c0-4.402 3.09-9 8.5-9 1.12 0 2.157.201 3.094.57l-.73 1.86A6.426 6.426 0 009.5 15C5.473 15 3 18.402 3 22H1z"/>
  <path fill-rule="evenodd" d="M19.187 13.555a1.1 1.1 0 00-1.815 0l-1.303 1.902-2.212.652a1.1 1.1 0 00-.56 1.726l1.405 1.827-.063 2.305a1.1 1.1 0 001.468 1.067l2.172-.773 2.173.773a1.1 1.1 0 001.468-1.067l-.063-2.305 1.406-1.827a1.1 1.1 0 00-.56-1.726l-2.213-.652-1.303-1.902zm-1.87 3.62l.962-1.406.964 1.405 1.634.482-1.039 1.35.047 1.703-1.606-.57-1.605.57.047-1.703-1.039-1.35 1.634-.482z" clip-rule="evenodd"/>
</svg>
