<svg xmlns="http://www.w3.org/2000/svg" width="24" height="24" fill="currentColor" viewBox="0 0 24 24">
  <path fill-rule="evenodd" d="M8.293 3.293A1 1 0 019 3h6a1 1 0 01.707.293L17.414 5H21a1 1 0 011 1v13a1 1 0 01-1 1H3a1 1 0 01-1-1V6a1 1 0 011-1h1V4h2v1h.586l1.707-1.707zM9.414 5L7.707 6.707A1 1 0 017 7H4v11h16V7h-3a1 1 0 01-.707-.293L14.586 5H9.414z" clip-rule="evenodd"/>
  <path fill-rule="evenodd" d="M12 14.5a2.5 2.5 0 100-5 2.5 2.5 0 000 5zm0 2a4.5 4.5 0 100-9 4.5 4.5 0 000 9z" clip-rule="evenodd"/>
</svg>
