<svg xmlns="http://www.w3.org/2000/svg" width="24" height="24" fill="currentColor" viewBox="0 0 24 24">
  <path d="M1.293 3.293A1 1 0 012 3h20a1 1 0 011 1v16a1 1 0 01-1 1H7v-2h14V5H3v5H1V4a1 1 0 01.293-.707z"/>
  <path d="M.362 14.904c.019-.861.315-1.547.889-2.057.592-.534 1.404-.8 2.434-.8.97 0 1.756.246 2.358.738.592.488.889 1.123.889 1.907 0 .971-.488 1.744-1.463 2.318-.456.264-.764.501-.923.71-.16.21-.24.484-.24.821v.362h-1.81l-.015-.396c-.045-.529.03-.969.226-1.32.191-.332.526-.64 1.005-.922.442-.265.743-.502.902-.711.164-.21.246-.476.246-.8 0-.328-.118-.597-.355-.807-.242-.21-.556-.314-.943-.314-.392 0-.71.116-.95.348-.242.228-.374.536-.397.923H.362zM3.425 22.17c-.31 0-.572-.104-.786-.314a.999.999 0 01-.328-.758c0-.301.109-.556.328-.766.214-.205.476-.308.786-.308.31 0 .574.103.793.308.219.21.328.465.328.766 0 .3-.11.553-.328.758-.219.21-.483.315-.793.315zM12 13.624L9.793 15.86l-1.446-1.457 2.207-2.238-.76-.768V9.882l-.529-.533v1.322l-.46.464L6.957 9.27l-.457.461a3.136 3.136 0 01.918-2.193c.914-.886 1.9-.487 2.237-.146l1.848 1.863-.472.475.969.977.968-.977-.47-.475 1.846-1.863c.338-.341 1.324-.74 2.237.146.847.839.916 1.845.919 2.193l-.457-.461-1.849 1.865-.46-.464V9.349l-.528.533v1.516l-.76.768 3.646 3.677-1.446 1.457L12 13.624z"/>
</svg>
