<svg xmlns="http://www.w3.org/2000/svg" width="24" height="24" fill="currentColor" viewBox="0 0 24 24">
  <path d="M17 3a4 4 0 00-2.828 1.172l1.414 1.414a2 2 0 012.828 2.828l1.414 1.414A4 4 0 0017 3z"/>
  <path fill-rule="evenodd" d="M12 22a10 10 0 007.066-2.924l.005-.005c.602-.602.697-1.43.612-2.15-.087-.735-.377-1.545-.789-2.368-.718-1.438-1.888-3.07-3.371-4.662l1.427-1.427-1.414-1.414-1.427 1.427c-1.592-1.482-3.224-2.653-4.662-3.371-.822-.412-1.633-.702-2.367-.789-.72-.085-1.549.01-2.151.612A10 10 0 0012 22zm-1.414-8.586C8.883 11.712 7.602 9.97 6.894 8.553c-.356-.713-.541-1.291-.59-1.709a1.236 1.236 0 01.006-.418.295.295 0 01.024-.07c.005-.01.008-.012.01-.013l.012-.008a.295.295 0 01.07-.025c.078-.018.213-.03.418-.006.418.049.996.234 1.709.59 1.216.609 2.674 1.64 4.14 2.998l-1.4 1.4 1.414 1.415 1.4-1.4c1.36 1.466 2.39 2.924 2.999 4.14.356.713.541 1.291.59 1.709.025.205.012.34-.006.419a.292.292 0 01-.024.069c-.006.01-.009.012-.01.013a.066.066 0 01-.012.009.3.3 0 01-.07.024 1.235 1.235 0 01-.418.007c-.418-.05-.996-.235-1.709-.591-1.416-.708-3.159-1.99-4.861-3.692zM12 20a8 8 0 003.362-.74 10.557 10.557 0 01-.81-.366c-1.654-.827-3.568-2.253-5.38-4.065-1.813-1.813-3.239-3.727-4.066-5.382a10.584 10.584 0 01-.365-.809A7.999 7.999 0 0012 20z" clip-rule="evenodd"/>
</svg>
