<svg xmlns="http://www.w3.org/2000/svg" width="24" height="24" fill="currentColor" viewBox="0 0 24 24">
  <path fill-rule="evenodd" d="M8.03 1.757A1 1 0 019 1h6a1 1 0 01.97.757l.838 3.353A3.001 3.001 0 0119 8v8a3.001 3.001 0 01-2.192 2.89l-.838 3.352A1 1 0 0115 23H9a1 1 0 01-.97-.758l-.838-3.352A3.001 3.001 0 015 16V8c0-1.377.927-2.537 2.192-2.89l.838-3.353zM9.28 5h5.44l-.5-2H9.78l-.5 2zm0 14l.5 2h4.44l.5-2H9.28zM7 8a1 1 0 011-1h8a1 1 0 011 1v8a1 1 0 01-1 1H8a1 1 0 01-1-1V8z" clip-rule="evenodd"/>
</svg>
