<svg width="24" height="24" xmlns="http://www.w3.org/2000/svg"><path d="M21.86 19.7c.33.242.731.365 1.14.35v2a3.773 3.773 0 01-2.179-.643 2.059 2.059 0 00-2.316 0 3.747 3.747 0 01-2.172.643 3.854 3.854 0 01-2.22-.652A1.779 1.779 0 0013 21.05a1.8 1.8 0 00-1.133.351 3.812 3.812 0 01-2.2.649 3.767 3.767 0 01-2.166-.64 1.845 1.845 0 00-1.168-.36c-.414-.01-.82.116-1.156.36A3.852 3.852 0 013 22.05v-2c.416.01.825-.117 1.161-.362a3.855 3.855 0 012.177-.64 3.825 3.825 0 012.2.648c.326.242.724.366 1.129.352.418.016.83-.11 1.167-.358a3.957 3.957 0 014.315 0c.342.25.76.378 1.184.362a1.79 1.79 0 001.133-.352 4.051 4.051 0 014.394 0zM4 12.375a1.4 1.4 0 00-1.4-1.396H2l-1-.953V8.979h1.6c.9-.001 1.764.356 2.4.993a3.385 3.385 0 012.4-.993H9v1.038l-1 .958h-.6a1.4 1.4 0 00-1.4 1.4V15.1a.908.908 0 00.9.9c.7 0 1.225-.609 1.683-1.35C10.134 12.146 12.376 10 15.5 10a7.508 7.508 0 017.5 7.5c0 .169-.014.334-.025.5h-2c.015-.165.025-.331.025-.5a5.506 5.506 0 00-5.5-5.5c-2.342 0-4.014 1.633-5.129 3.542C9.488 17.047 8.373 18 6.9 18A2.9 2.9 0 014 15.1v-2.725zm11-3.708a3.692 3.692 0 00-3.688-3.688H11v-2h.312A5.685 5.685 0 0116 5.453a5.684 5.684 0 014.687-2.474H21v2h-.313A3.692 3.692 0 0017 8.667h-2zM17.062 16h1.906v1.938h-1.906V16z"/></svg>
