<svg width="24" height="24" viewBox="0 0 24 24" fill="none" xmlns="http://www.w3.org/2000/svg">
    <path d="M19.9142 11.7873C20.064 9.70117 19.2995 7.65277 17.8187 6.17301C16.3487 4.70749 14.3178 3.9446 12.2445 4.07915L12.3412 2.00795C14.9432 1.9003 17.4706 2.88951 19.3058 4.73383C21.141 6.57814 22.1148 9.10761 21.9892 11.704L19.9142 11.7873Z" fill="#2B2D33"/>
    <path d="M14.1577 9.82721C14.7257 10.3978 14.9105 11.2454 14.6315 12L16.7709 11.9108C16.9786 10.6177 16.5547 9.30336 15.6303 8.37398C14.7058 7.44461 13.3922 7.01208 12.0952 7.21007L12 9.34997C12.7513 9.08066 13.5908 9.26633 14.1577 9.82721Z" fill="#2B2D33"/>
    <path fill-rule="evenodd" clip-rule="evenodd" d="M9.4166 12.1535L6.47874 15.036C6.78996 15.4478 7.12393 15.8273 7.48614 16.1821C7.97147 16.6575 8.51573 17.0968 9.13739 17.5133L11.8219 14.866C12.3118 14.3829 13.0769 14.2957 13.6667 14.6558L17.2967 16.8118C18.1933 17.3592 18.2417 18.6223 17.3897 19.2343L14.9069 21.8116C14.6386 22.0044 14.2899 22.0527 13.9776 21.9404C11.9278 21.2033 10.2202 20.4612 8.78086 19.6061C8.76697 19.5982 8.75323 19.5901 8.73966 19.5815C7.72944 18.9777 6.85199 18.3172 6.08148 17.5624C4.19558 15.715 3.03642 13.3879 2.04335 10.1975C1.9569 9.91973 2.0011 9.61864 2.16391 9.37612L4.82605 6.65819C5.40698 5.79289 6.69538 5.77806 7.29684 6.62976L9.58788 10.2859C9.9984 10.8672 9.9263 11.6535 9.4166 12.1535ZM4.08324 10.0632L6.08165 8.33391L7.71741 11.0622L5.40874 13.3273C4.92422 12.3975 4.49379 11.3255 4.08324 10.0632ZM14.1646 19.9274C12.9168 19.4646 11.8414 19.0087 10.905 18.5358L12.9522 16.517L15.6219 18.0866L14.1646 19.9274Z" fill="#2B2D33"/>
</svg>
