<svg xmlns="http://www.w3.org/2000/svg" width="24" height="24" fill="currentColor" viewBox="0 0 24 24">
  <path fill-rule="evenodd" d="M6.66 4A2 2 0 004.82 5.212l-2.66 6.205a2 2 0 00-.161.788V16a2 2 0 001.105 1.789A3.001 3.001 0 008.829 18h6.342a3.001 3.001 0 005.724-.211A2 2 0 0022 16v-3.22a2 2 0 00-1.515-1.94l-1.364-.34 1.327-1.138.845.845 1.414-1.414-1.5-1.5a1 1 0 00-1.358-.052l-2.527 2.166-2.151-4.301A2 2 0 0013.382 4H6.659zm2.17 12h6.34A3.001 3.001 0 0120 14.764V12.78l-2.796-.7A2.011 2.011 0 0116.95 12H4.088L4 12.205v2.559A3.001 3.001 0 018.83 16zm6.552-6l-2-4H12v4h3.382zM10 6H6.66l-1.715 4H10V6zm8 10a1 1 0 100 2 1 1 0 000-2zM5 17a1 1 0 112 0 1 1 0 01-2 0z" clip-rule="evenodd"/>
</svg>
