<svg xmlns="http://www.w3.org/2000/svg" width="24" height="24" fill="currentColor" viewBox="0 0 24 24">
  <path fill-rule="evenodd" d="M17 6h-3v2h2.465l.793 1.19A8.013 8.013 0 0012 13.124 7.998 7.998 0 005 9H3v2h2c1.296 0 2.496.41 3.477 1.11l-1.445 1.444a4 4 0 101.414 1.414l1.445-1.444C10.589 14.504 11 15.704 11 17a1 1 0 102 0c0-1.296.41-2.496 1.11-3.476l1.444 1.444a4 4 0 101.414-1.414l-1.445-1.445A5.972 5.972 0 0119 11a1 1 0 00.832-1.555l-2-3A1 1 0 0017 6zM5 15a2 2 0 100 4 2 2 0 000-4zm14 0a2 2 0 100 4 2 2 0 000-4z" clip-rule="evenodd"/>
</svg>
