<svg xmlns="http://www.w3.org/2000/svg" width="24" height="24" fill="currentColor" viewBox="0 0 24 24">
  <path fill-rule="evenodd" d="M12 2a1 1 0 01.918.604l2.47 5.734 6.215.576a1 1 0 01.567 1.747l-4.69 4.12 1.373 6.09a1 1 0 01-1.486 1.079L12 18.763 6.633 21.95a1 1 0 01-1.487-1.08l1.373-6.09-4.69-4.119a1 1 0 01.568-1.747l6.215-.576 2.47-5.734A1 1 0 0112 2zm0 3.528l-1.786 4.146a1 1 0 01-.826.6l-4.494.417 3.391 2.98a1 1 0 01.316.97l-.993 4.404 3.881-2.305a1 1 0 011.021 0l3.882 2.305-.993-4.404a1 1 0 01.316-.97l3.39-2.98-4.494-.417a1 1 0 01-.826-.6L12 5.528z" clip-rule="evenodd"/>
</svg>
