<svg xmlns="http://www.w3.org/2000/svg" width="24" height="24" fill="currentColor" viewBox="0 0 24 24">
  <path d="M9.526 8.342A.5.5 0 0110 8h4a.5.5 0 01.3.9l-2 1.5a.5.5 0 01-.6 0l-2-1.5a.5.5 0 01-.174-.558z"/>
  <path fill-rule="evenodd" d="M5.29 2.296A1 1 0 016 2h12a1 1 0 011 1.01l-.003.28c-.012 1.258-.023 2.31-.086 3.194-.068.954-.202 1.787-.503 2.544-.477 1.2-1.32 2.067-2.594 2.972 1.273.905 2.117 1.772 2.594 2.972.301.757.435 1.59.503 2.544.063.884.074 1.936.086 3.194l.003.28A1 1 0 0118 22H6a1 1 0 01-1-1.01l.003-.28c.012-1.258.022-2.31.086-3.194.068-.954.202-1.787.503-2.544.477-1.2 1.32-2.067 2.594-2.972-1.273-.905-2.117-1.772-2.594-2.972-.301-.757-.435-1.59-.503-2.544-.063-.884-.074-1.936-.086-3.194L5 3.01a1 1 0 01.29-.714zM7.01 4c.011.93.027 1.69.074 2.342.062.866.175 1.465.366 1.947.363.912 1.09 1.62 3.08 2.863a1 1 0 010 1.696c-1.99 1.244-2.717 1.95-3.08 2.863-.191.481-.304 1.08-.366 1.947-.047.651-.063 1.411-.074 2.342h.49c.1-.16.278-.455.485-.802.41-.683.936-1.564 1.23-1.985.442-.63.924-1.275 1.367-1.766a5.15 5.15 0 01.654-.628c.19-.146.46-.319.764-.319.303 0 .575.173.764.319.212.163.434.383.655.628.442.491.924 1.136 1.366 1.766.294.42.82 1.302 1.23 1.985.207.347.384.643.485.802h.49c-.011-.93-.027-1.69-.074-2.342-.062-.866-.175-1.466-.366-1.947-.363-.912-1.09-1.62-3.08-2.863a1 1 0 010-1.696c1.99-1.244 2.717-1.95 3.08-2.863.191-.482.304-1.08.366-1.947.047-.651.063-1.411.074-2.342H7.01z" clip-rule="evenodd"/>
</svg>
