<svg xmlns="http://www.w3.org/2000/svg" width="24" height="24" fill="currentColor" viewBox="0 0 24 24">
  <path d="M4 5a1 1 0 011-1h2a1 1 0 011 1v2a1 1 0 01-1 1H5a1 1 0 01-1-1V5zM4 11a1 1 0 011-1h2a1 1 0 011 1v2a1 1 0 01-1 1H5a1 1 0 01-1-1v-2zM11 4a1 1 0 00-1 1v2a1 1 0 001 1h2a1 1 0 001-1V5a1 1 0 00-1-1h-2zM10 11a1 1 0 011-1h2a1 1 0 011 1v2a1 1 0 01-1 1h-2a1 1 0 01-1-1v-2zM11 16a1 1 0 00-1 1v2a1 1 0 001 1h2a1 1 0 001-1v-2a1 1 0 00-1-1h-2zM16 5a1 1 0 011-1h2a1 1 0 011 1v2a1 1 0 01-1 1h-2a1 1 0 01-1-1V5zM17 10a1 1 0 00-1 1v2a1 1 0 001 1h2a1 1 0 001-1v-2a1 1 0 00-1-1h-2z"/>
</svg>
