<svg xmlns="http://www.w3.org/2000/svg" width="26" height="24" fill="currentColor" viewBox="0 0 26 24">
  <path d="M5.5 12A7.5 7.5 0 0118.72 7.147l1.524-1.294A9.5 9.5 0 003.52 12.616l-1.315-1.027-1.23 1.576 3.342 2.612a1 1 0 001.404-.173l2.612-3.343-1.576-1.231-1.233 1.578A7.615 7.615 0 015.5 12zM23.795 12.411l-1.315-1.027a9.5 9.5 0 01-16.723 6.763l1.524-1.294a7.5 7.5 0 0013.195-5.46l-1.233 1.577-1.576-1.231 2.612-3.343a1 1 0 011.404-.173l3.343 2.612-1.231 1.576z"/>
  <path d="M9.293 9.707L11.586 12l-2.293 2.293 1.414 1.414L13 13.414l2.293 2.293 1.414-1.414L14.414 12l2.293-2.293-1.414-1.414L13 10.586l-2.293-2.293-1.414 1.414z"/>
</svg>
