<svg width="24" height="24" viewBox="0 0 24 24" fill="none" xmlns="http://www.w3.org/2000/svg">
    <path fill-rule="evenodd" clip-rule="evenodd" d="M19.5321 3.07121C21.0289 2.66271 22.3806 4.08088 21.902 5.55768L17.3347 19.649C16.8438 21.1635 14.8453 21.4853 13.9044 20.2013L10.2379 15.1978C9.71623 14.4859 9.73668 13.5124 10.2877 12.8231L11.481 11.3305L8.37199 12.4417C7.96095 12.5886 7.51255 12.5934 7.09847 12.4553L3.33453 11.1999C1.50266 10.589 1.57522 7.9717 3.43812 7.46331L19.5321 3.07121ZM20.0456 4.95522L3.95163 9.34732L7.71556 10.6026L17.301 7.17689L11.8117 14.043L15.4783 19.0466L20.0456 4.95522Z" fill="#2B2D33"/>
</svg>
