<svg width="24" height="24" viewBox="0 0 24 24" fill="none" xmlns="http://www.w3.org/2000/svg">
    <path d="M16.2876 14.055C16.0453 13.9346 14.8537 13.3528 14.6315 13.2724C14.4095 13.1921 14.2477 13.1521 14.0863 13.3929C13.9247 13.6336 13.4603 14.1755 13.3188 14.336C13.1773 14.4965 13.0361 14.5167 12.7937 14.3962C12.7542 14.3766 12.7003 14.3534 12.6338 14.3247C12.2927 14.1779 11.6194 13.888 10.8446 13.2022C10.1242 12.5643 9.63784 11.7766 9.49638 11.5359C9.36991 11.32 9.46902 11.2032 9.56834 11.086C9.57991 11.0724 9.59149 11.0587 9.60271 11.0449C9.86508 10.7215 10.1278 10.3825 10.2086 10.2221C10.2894 10.0615 10.2489 9.92098 10.1883 9.80062C10.1477 9.71983 9.91597 9.15983 9.70693 8.65462C9.60453 8.40714 9.50757 8.17281 9.44119 8.0144C9.26729 7.60029 9.09125 7.60131 8.94995 7.60214C8.93126 7.60225 8.91318 7.60235 8.89579 7.60149C8.75457 7.5945 8.59293 7.59307 8.43128 7.59307C8.26975 7.59307 8.00715 7.65319 7.78493 7.89416C7.77067 7.90962 7.75474 7.9265 7.73741 7.94485C7.485 8.21222 6.93679 8.79293 6.93679 9.90094C6.93679 11.0782 7.79526 12.2157 7.92422 12.3865L7.92639 12.3894C7.93432 12.3999 7.94855 12.4202 7.96889 12.4491C8.25914 12.8623 9.79467 15.048 12.0666 16.0216C12.6449 16.2697 13.0962 16.4176 13.4483 16.5285C14.029 16.7115 14.5571 16.6857 14.9748 16.6238C15.4405 16.5547 16.4086 16.0418 16.6108 15.4799C17.0219 14.7847 17.1168 14.4777 16.752 14.2926C16.7255 14.2792 16.6941 14.2628 16.656 14.243C16.5716 14.199 16.4546 14.1381 16.2876 14.055Z" fill="#2B2D33"/>
    <path fill-rule="evenodd" clip-rule="evenodd" d="M19.0877 4.89902C12.6532 -1.34792 2.00418 3.18285 2 11.9956C2 13.7572 2.45943 15.475 3.33478 16.992L2.3771 20.4864C2.17194 21.235 2.85064 21.9258 3.59872 21.7299L7.21695 20.7824C13.8323 24.371 21.9967 19.6057 22 12.0007C22 9.33146 20.9623 6.81941 19.0752 4.93179L19.0877 4.89902ZM17.6618 6.33629C12.5141 1.33874 3.99494 4.96336 3.9916 12.0136C3.9916 13.4228 4.73004 15.4102 5.43032 16.6238L4.42604 19.6494L7.94088 18.6409C13.2332 21.5118 19.9889 18.1017 19.9916 12.0176C19.9916 9.88224 19.1614 7.8726 17.6518 6.36251L17.6618 6.33629Z" fill="#2B2D33"/>
</svg>
