<svg xmlns="http://www.w3.org/2000/svg" width="24" height="24" fill="currentColor" viewBox="0 0 24 24">
  <path fill-rule="evenodd" d="M12.693 2.28a1 1 0 00-1.386 0l-.002.001-.005.005-.017.017a16.89 16.89 0 00-.295.293 39.978 39.978 0 00-3.284 3.785c-.898 1.182-1.813 2.545-2.507 3.951C4.509 11.727 4 13.24 4 14.7c0 1.946.444 3.494 1.31 4.666.869 1.175 2.084 1.867 3.425 2.241a1 1 0 001.269-.939c.048-1.99.523-3.771 1.085-5.034.283-.635.573-1.106.817-1.4.034-.04.065-.076.094-.107.029.03.06.066.094.107.244.294.534.765.817 1.4.562 1.263 1.037 3.044 1.085 5.034a1 1 0 001.269.94c1.341-.375 2.556-1.067 3.425-2.242.865-1.172 1.31-2.72 1.31-4.666 0-1.46-.509-2.973-1.197-4.368-.694-1.406-1.61-2.77-2.507-3.95a39.985 39.985 0 00-3.579-4.08l-.017-.016-.005-.005-.002-.002zM12 4.424l-.36.384A37.982 37.982 0 009.296 7.59c-.852 1.122-1.687 2.373-2.305 3.626C6.366 12.482 6 13.675 6 14.7c0 1.646.374 2.74.919 3.477.313.423.707.764 1.183 1.031.192-1.695.636-3.21 1.16-4.388.332-.745.71-1.387 1.104-1.862.196-.236.417-.457.66-.626.234-.162.57-.332.974-.332s.74.17.973.332c.244.17.465.39.661.626.393.475.772 1.117 1.104 1.862.524 1.178.968 2.693 1.16 4.388.476-.267.87-.608 1.183-1.031.545-.737.919-1.83.919-3.477 0-1.025-.366-2.218-.99-3.483-.619-1.253-1.454-2.504-2.306-3.626A37.98 37.98 0 0012 4.425z" clip-rule="evenodd"/>
</svg>
