<svg xmlns="http://www.w3.org/2000/svg" width="24" height="24" fill="currentColor" viewBox="0 0 24 24">
  <path fill-rule="evenodd" d="M14 9c0-1.844.461-3.08 1.127-3.841.616-.704 1.501-1.112 2.666-1.155.07.073.163.187.278.35.286.41.604.982.91 1.593a34.432 34.432 0 01.838 1.82l-.017.016-1.355-.677a1 1 0 00-1.433.73l-.5 3a1 1 0 00.016.406l1.5 6 1.94-.485-1.45-5.798.244-1.46.789.395a1 1 0 001.154-.187l1-1a1 1 0 00.221-1.079l-.006-.016-.018-.045a31.77 31.77 0 00-.315-.746 36.546 36.546 0 00-.82-1.768c-.32-.64-.689-1.316-1.06-1.845a4.438 4.438 0 00-.62-.733c-.195-.177-.575-.475-1.09-.475-1.732 0-3.278.586-4.377 1.841-.91 1.042-1.437 2.454-1.581 4.159H7.828a2.991 2.991 0 00-.707-1.121A3 3 0 002 9v2h2V9a1 1 0 011.995-.102l-1.965 7.86 1.94.485L7.78 10H13a1 1 0 001-1zM17.7 3.921l.017.012a.111.111 0 01-.017-.012z" clip-rule="evenodd"/>
  <path d="M8.84 14.449C9.694 13.546 10.801 13 12 13c1.198 0 2.305.546 3.16 1.449.851.897 1.427 2.113 1.685 3.436l-1.963.383c-.198-1.016-.626-1.867-1.173-2.444-.541-.57-1.146-.824-1.71-.824-.562 0-1.167.253-1.708.825-.547.576-.975 1.427-1.173 2.443l-1.963-.383c.258-1.323.834-2.539 1.684-3.436z"/>
  <path d="M17.761 19.125c1.66-.573 2.648-1.314 3.039-1.972l1.718 1.023c-.748 1.257-2.27 2.206-4.104 2.84-1.87.645-4.122.984-6.414.984s-4.545-.34-6.414-.985c-1.834-.633-3.357-1.582-4.105-2.839L3.2 17.153c.391.658 1.38 1.399 3.039 1.972 1.623.56 3.65.875 5.76.875 2.112 0 4.139-.314 5.762-.875z"/>
</svg>
