<svg xmlns="http://www.w3.org/2000/svg" width="24" height="24" fill="currentColor" viewBox="0 0 24 24">
  <path fill-rule="evenodd" d="M2 4a1 1 0 011-1h4a1 1 0 011 1v4a1 1 0 01-1 1H3a1 1 0 01-1-1V4zm2 1v2h2V5H4zM2 12a1 1 0 011-1h4a1 1 0 011 1v4a1 1 0 01-1 1H3a1 1 0 01-1-1v-4zm2 1v2h2v-2H4zM11.124 11.008a1 1 0 00-1.116 1.116l1 8a1 1 0 001.7.583L14 19.414l2.293 2.293a1 1 0 001.414 0l3-3a1 1 0 000-1.414L18.414 15l1.293-1.293a1 1 0 00-.583-1.7l-8-1zm1.615 6.84l-.587-4.696 4.695.587-.554.554a1 1 0 000 1.414L18.586 18 17 19.586l-2.293-2.293a1 1 0 00-1.414 0l-.554.554z" clip-rule="evenodd"/>
  <path d="M22 5H10V3h12v2zM10 9h8V7h-8v2z"/>
</svg>
