<svg xmlns="http://www.w3.org/2000/svg" width="24" height="24" fill="currentColor" viewBox="0 0 24 24">
  <path d="M11.293 16.707l-4-4 1.414-1.414 4 4-1.414 1.414zM10.293 9.707l4 4 1.414-1.414-4-4-1.414 1.414z"/>
  <path fill-rule="evenodd" d="M19.914 5.5l2.793-2.793-1.414-1.414L18.5 4.086l-.793-.793A1 1 0 0017 3h-5a1 1 0 00-.707.293l-9 9a1 1 0 000 1.414l8 8a1 1 0 001.414 0l9-9A1 1 0 0021 12V7a1 1 0 00-.293-.707l-.793-.793zm-2.828 0l-.5-.5h-4.172l-8 8L11 19.586l8-8V7.414l-.5-.5-.502.503L18 7.5a1.5 1.5 0 11-1.416-1.498l.502-.502z" clip-rule="evenodd"/>
</svg>
