<svg xmlns="http://www.w3.org/2000/svg" width="24" height="24" fill="currentColor" viewBox="0 0 24 24">
  <path fill-rule="evenodd" d="M3 2a1 1 0 00-1 1v6a1 1 0 001 1v6a1 1 0 00-1 1v4a1 1 0 001 1h9a1 1 0 001-1v-4a1 1 0 00-1-1h-1.382l-.83-1.658A3.003 3.003 0 019.645 14H11a4 4 0 004-4h2a4.002 4.002 0 003.874-3H24V5h-3.126A4.002 4.002 0 0017 2H3zm10 2v4H4V4h9zm4 4h-2V4h2a2 2 0 110 4zm-4 2h-2.382l-.83 1.658a3.003 3.003 0 00-.144.342H11a2 2 0 002-2zm-4.618 0H5v6h3.382L8 15.236a5 5 0 010-4.472L8.382 10zM4 20v-2h7v2H4z" clip-rule="evenodd"/>
</svg>
