<svg xmlns="http://www.w3.org/2000/svg" width="24" height="24" fill="currentColor" viewBox="0 0 24 24">
  <path d="M14.438 9.56a1.5 1.5 0 102.121-2.12 1.5 1.5 0 00-2.121 2.12z"/>
  <path fill-rule="evenodd" d="M17.306 15.253c3.378-2.874 4.562-5.857 4.846-8.225a9.91 9.91 0 00-.085-2.984 8.63 8.63 0 00-.253-1.024l-.03-.093c-.02-.035-.028-.056-.035-.077a1.195 1.195 0 00-.587-.587l-.039-.018-.039-.018h-.002c-.063-.022-.148-.05-.245-.078a4.81 4.81 0 00-.387-.107l-.15-.035-.146-.03-.194-.04a9.913 9.913 0 00-2.984-.085c-2.368.284-5.363 1.468-8.231 4.84L7.21 6.385a3.007 3.007 0 00-3.194 1.458l-2.11 3.69a.99.99 0 00-.014.961c.162.303.456.5.8.523v.008l4.228.325 3.72 3.72.325 4.228c.028.34.226.65.523.806a.99.99 0 00.961-.014h.015l3.698-2.114a3.012 3.012 0 001.456-3.197l-.008.002-.305-1.528zm-1.724-1.174l-.006-.008c3.338-2.672 4.355-5.346 4.589-7.29a7.9 7.9 0 00-.064-2.383 4.973 4.973 0 00-.086-.405 9.685 9.685 0 00-.408-.09 8.147 8.147 0 00-2.39-.07c-1.945.233-4.632 1.25-7.298 4.581l-.008-.006a1.006 1.006 0 01-.966.355l-.002.005-2.12-.424a.992.992 0 00-.73.137 1.025 1.025 0 00-.332.344l-1.33 2.328 3.013.231c.233.021.46.12.63.29l4.242 4.243c.092.092.163.2.212.317.042.1.068.205.078.312l.233 3.025 2.334-1.335c.373-.218.57-.64.489-1.062l-.008.001-.424-2.12a.995.995 0 01.352-.976z" clip-rule="evenodd"/>
  <path d="M2.437 19.433c.212-.99.952-2.466 2.806-4.778l1.56 1.251c-1.646 2.053-2.203 3.212-2.372 3.795.582-.17 1.741-.726 3.795-2.373l1.25 1.561c-2.311 1.853-3.787 2.594-4.778 2.806-.513.11-.953.09-1.318-.05a1.483 1.483 0 01-.54-.352l-.029-.028-.05-.053-.014-.017a1.547 1.547 0 01-.26-.443c-.14-.366-.16-.805-.05-1.319z"/>
</svg>
