<svg xmlns="http://www.w3.org/2000/svg" width="24" height="24" fill="currentColor" viewBox="0 0 24 24">
  <path d="M14 15a1 1 0 100-2 1 1 0 000 2zM17 16a1 1 0 11-2 0 1 1 0 012 0zM18 15a1 1 0 100-2 1 1 0 000 2z"/>
  <path fill-rule="evenodd" d="M7.5 1C5.948 1 4 2.448 4 5c0 .584.136 1.399.252 2.096l.012.068c.13.788.236 1.44.236 1.836 0 .295-.093.644-.301 1.102-.168.369-.377.742-.621 1.176l-.202.361C2.746 12.774 2 14.222 2 16c0 2.175.547 3.623 1.168 4.555.308.461.624.782.88.994a3.307 3.307 0 00.437.309l.04.022.015.008.007.003.003.002h.001l.213.107h5.472l.213-.107h.002l.004-.003.01-.004.021-.012a1.995 1.995 0 00.224-.14c.13-.09.298-.22.483-.402.157-.153.324-.341.492-.569a6.5 6.5 0 10-.579-10.054c-.086-.16-.168-.318-.245-.48-.248-.518-.361-.904-.361-1.229 0-.397.105-1.048.236-1.836l.012-.068C10.864 6.4 11 5.584 11 5c0-2.552-1.948-4-3.5-4zm2.294 18.903a2.12 2.12 0 01-.106.097H5.312a2.67 2.67 0 01-.48-.555C4.453 18.877 4 17.825 4 16c0-1.222.505-2.274 1.124-3.39l.176-.313c.249-.443.513-.913.72-1.368.26-.573.48-1.224.48-1.929 0-.584-.136-1.399-.252-2.096l-.012-.068C6.106 6.048 6 5.396 6 5c0-1.448 1.052-2 1.5-2C7.948 3 9 3.552 9 5c0 .397-.105 1.048-.236 1.836l-.012.068C8.636 7.6 8.5 8.416 8.5 9c0 .769.261 1.476.557 2.093.187.392.428.821.657 1.23l.058.102A6.476 6.476 0 009 15.5c0 1.43.462 2.752 1.244 3.825a2.96 2.96 0 01-.45.578zm1.963-6.902a4.5 4.5 0 117.487 4.997 4.5 4.5 0 01-7.487-4.997z" clip-rule="evenodd"/>
</svg>
