<svg xmlns="http://www.w3.org/2000/svg" width="24" height="24" fill="currentColor" viewBox="0 0 24 24">
  <path fill-rule="evenodd" d="M4.764 5.645L4 5l-.764-.646.002-.002.003-.003.008-.01.024-.027c.02-.021.045-.05.078-.084.065-.07.158-.164.277-.274.236-.22.58-.507 1.025-.794C5.538 2.587 6.85 2 8.5 2s2.962.587 3.848 1.16l.152.101c.05-.033.1-.067.152-.1C13.538 2.586 14.85 2 16.5 2s2.962.587 3.848 1.16c.444.287.788.575 1.024.794a5.912 5.912 0 01.355.358l.024.027.008.01.003.003.001.002s.001.001-.763.646l-.764.645.002.002v.001l-.004-.005a3.907 3.907 0 00-.221-.222 5.514 5.514 0 00-.751-.581C18.6 4.413 17.662 4 16.5 4c-.395 0-.765.048-1.106.127a6.868 6.868 0 011.91 1.348c1.166 1.167 1.678 2.51 1.9 3.54.11.518.15.965.163 1.287a5.909 5.909 0 01-.003.504l-.002.036v.012l-.001.005v.002s0 .002-.997-.083l-.997-.084v.004-.007l.003-.057a3.874 3.874 0 00-.002-.257 5.521 5.521 0 00-.12-.941c-.165-.77-.537-1.725-1.359-2.547a4.861 4.861 0 00-1.128-.84A10.585 10.585 0 0116 11c0 2.422-.832 4.354-1.652 5.67a11.39 11.39 0 01-.32.485 13.28 13.28 0 014.325 1.467c.743.405 1.32.812 1.716 1.122a9.271 9.271 0 01.619.531l.011.011.004.004.002.002L20 21c-.707.707-.707.707-.706.708l-.017-.016a7.207 7.207 0 00-.44-.373A11.235 11.235 0 0012 19a11.235 11.235 0 00-6.837 2.319 7.181 7.181 0 00-.44.373l-.016.016L4 21a113.31 113.31 0 01-.706-.708l.002-.002.004-.004.011-.011a3.967 3.967 0 01.161-.15 9.25 9.25 0 01.459-.381c.395-.31.972-.717 1.715-1.122a13.238 13.238 0 015.938-1.616 9.096 9.096 0 001.067-1.395c.68-1.09 1.35-2.658 1.35-4.611 0-1.71-.514-3.125-1.098-4.183-.456.119-.91.337-1.287.714-.55.55-.762 1.265-.822 1.91a4.497 4.497 0 00.033 1.067l.002.007-.001-.003c0-.001 0-.002-.98.201l-.979.203v-.003l-.001-.004-.003-.011-.006-.033a5.512 5.512 0 01-.059-.455c-.025-.289-.04-.691.003-1.153.07-.763.304-1.746.959-2.63a6.28 6.28 0 00-3.074 2.706 6.196 6.196 0 00-.44.936 4.21 4.21 0 00-.103.32l-.002.01v-.004l-.973-.229-.974-.228.001-.003.001-.005.003-.012.01-.036a6.219 6.219 0 01.16-.502c.117-.318.302-.753.581-1.241A8.28 8.28 0 018 5.268a8.176 8.176 0 012.34-.908A4.901 4.901 0 008.5 4c-1.162 0-2.1.413-2.762.84a5.52 5.52 0 00-.75.58 3.916 3.916 0 00-.222.223l-.005.006.002-.002v-.002zm14.53 16.064v-.001z" clip-rule="evenodd"/>
</svg>
