<svg width="24" height="24" xmlns="http://www.w3.org/2000/svg"><path d="M6.2 10.8H3.8v2.4h2.4v-2.4zM2 10.792c0-.99.803-1.791 1.792-1.792h2.417C7.199 9 8 9.803 8 10.792v2.417C8 14.199 7.198 15 6.209 15H3.792c-.99 0-1.791-.802-1.792-1.791v-2.417zm11.2.008h-2.4v2.4h2.4v-2.4zM9 10.792c0-.99.803-1.791 1.792-1.792h2.417c.99 0 1.791.803 1.791 1.792v2.417c0 .99-.802 1.791-1.791 1.791h-2.417c-.99 0-1.791-.802-1.792-1.791v-2.417zm11.2.008h-2.4v2.4h2.4v-2.4zm-4.2-.008c0-.99.803-1.791 1.792-1.792h2.417c.99 0 1.791.803 1.791 1.792v2.417c0 .99-.802 1.791-1.791 1.791h-2.417c-.99 0-1.791-.802-1.792-1.791v-2.417z"/></svg>
