<svg width="24" height="24" xmlns="http://www.w3.org/2000/svg"><path d="M14 9v2a4 4 0 014 4c0 2.251-1.846 5-4 5a2.881 2.881 0 01-1.487-.442L12 19.251l-.513.307c-.446.28-.96.433-1.487.442-2.154 0-4-2.749-4-5a3.99 3.99 0 015.6-3.661l.4.174.4-.174c.195-.08.395-.144.6-.192V5.989A3.994 3.994 0 009.01 2H4v2.011A3.994 3.994 0 007.99 8H11v1.086A5.862 5.862 0 0010 9a6.006 6.006 0 00-6 6c0 3.237 2.621 7 6 7a4.718 4.718 0 002-.453c.625.296 1.308.45 2 .453 3.379 0 6-3.763 6-7a6.006 6.006 0 00-6-6zM6 4.011V4h3.01A1.992 1.992 0 0111 5.989L7.99 6A1.992 1.992 0 016 4.011z"/></svg>
