<svg xmlns="http://www.w3.org/2000/svg" width="24" height="24" fill="currentColor" viewBox="0 0 24 24">
  <path fill-rule="evenodd" d="M14.68 21.947L9 20.054 3.316 21.95A1 1 0 012 21v-8h2v6.613l4-1.334V15h2v3.28l4 1.333V7.78l-1.242-.31.485-1.941 1.717.43 5.724-1.909A1 1 0 0122 5v14a1 1 0 01-.684.949l-6 2a1 1 0 01-.636-.002zM16 7.721v11.892l4-1.334V6.387l-4 1.334z" clip-rule="evenodd"/>
  <path d="M6.5 7a1 1 0 100-2 1 1 0 000 2z"/>
  <path fill-rule="evenodd" d="M5.9 12.8a1 1 0 001.2 0l.002-.002.004-.003.012-.009.04-.03.142-.113a15.911 15.911 0 001.956-1.895C10.292 9.55 11.5 7.752 11.5 5.75 11.5 3.067 9.2 1 6.5 1s-5 2.067-5 4.75c0 2.002 1.208 3.8 2.244 4.998a15.911 15.911 0 002.097 2.007l.04.031.013.01.004.002.001.001.001.001zM6.5 3c1.719 0 3 1.291 3 2.75 0 1.248-.792 2.575-1.756 3.69-.448.517-.897.949-1.244 1.258-.347-.31-.796-.741-1.244-1.258C4.292 8.325 3.5 6.998 3.5 5.75 3.5 4.291 4.781 3 6.5 3z" clip-rule="evenodd"/>
  <path fill-rule="evenodd" d="M7.5 6a1 1 0 11-2 0 1 1 0 012 0z" clip-rule="evenodd"/>
</svg>
