<svg xmlns="http://www.w3.org/2000/svg" width="24" height="24" fill="currentColor" viewBox="0 0 24 24">
  <path fill-rule="evenodd" d="M17.657 6.343A8 8 0 106.343 17.657 8 8 0 0017.657 6.343zM4.929 4.93c3.905-3.905 10.237-3.905 14.142 0 3.905 3.905 3.905 10.237 0 14.142-3.905 3.905-10.237 3.905-14.142 0-3.905-3.905-3.905-10.237 0-14.142zm12.02 2.121a1 1 0 01.188 1.155L14.31 13.86a.999.999 0 01-.448.448l-5.656 2.828a1 1 0 01-1.342-1.342L9.69 10.14a1 1 0 01.448-.448l5.656-2.828a1 1 0 011.155.187zm-5.618 4.281l-1.338 2.676 2.676-1.338 1.338-2.676-2.676 1.338z" clip-rule="evenodd"/>
</svg>
