<svg xmlns="http://www.w3.org/2000/svg" width="24" height="24" fill="currentColor" viewBox="0 0 24 24">
  <path d="M6.7 1.796a1 1 0 00-1.7.59l-.778 6.617h2.013l.51-4.334L8.786 6.71a1 1 0 00.707.293h7a1 1 0 00.707-.293l2.041-2.04.752 6.39c-.026 2.452-1.778 4.773-4 5.715V18.9c3.279-.997 6-4.257 6-7.897a.992.992 0 00-.007-.117l-1-8.5a1 1 0 00-1.7-.59l-3.207 3.207H9.907L6.7 1.796z"/>
  <path fill-rule="evenodd" d="M6.1 11A1.1 1.1 0 005 12.1V14H3.1A1.1 1.1 0 002 15.1v3.8A1.1 1.1 0 003.1 20H5v1.9A1.1 1.1 0 006.1 23h3.8a1.1 1.1 0 001.1-1.1V20h1.9a1.1 1.1 0 001.1-1.1v-3.8a1.1 1.1 0 00-1.1-1.1H11v-1.9A1.1 1.1 0 009.9 11H6.1zm.9 5v-3h2v3h3v2H9v3H7v-3H4v-2h3z" clip-rule="evenodd"/>
</svg>
