<svg width="24" height="24" viewBox="0 0 24 24" fill="none" xmlns="http://www.w3.org/2000/svg">
<path fill-rule="evenodd" clip-rule="evenodd" d="M12 22C17.5228 22 22 17.5228 22 12C22 6.47715 17.5228 2 12 2C6.47715 2 2 6.47715 2 12C2 17.5228 6.47715 22 12 22ZM11.266 14.9998C11.3376 13.8597 11.8134 12.7825 12.608 11.9618L13.054 11.4998C13.6181 11.0603 13.9435 10.3818 13.933 9.66678C13.9248 9.2152 13.7302 8.78712 13.3953 8.48406C13.0604 8.181 12.6151 8.02997 12.165 8.06678C11.1558 8.13846 10.3799 8.98831 10.4 9.99978H8.59998C8.58023 7.99437 10.1618 6.33831 12.166 6.26578C13.103 6.24783 14.0081 6.60644 14.6786 7.2613C15.349 7.91617 15.7289 8.81257 15.733 9.74978C15.7502 10.9273 15.2359 12.0498 14.333 12.8058L13.9 13.2318C13.8372 13.2973 13.779 13.3572 13.725 13.4128C13.1858 13.9676 13.066 14.0909 13.066 14.9998H11.266ZM13 17.9998V15.9998H11V17.9998H13Z" fill="currentColor"/>
</svg>
