<svg width="24" height="24" xmlns="http://www.w3.org/2000/svg"><path d="M14.5 16.774l-2.52-1.641-2.52 1.641-1.015-.738.781-2.9-2.339-1.895.388-1.193 3-.154 1.074-2.809h1.255l1.075 2.809 3 .154.387 1.193-2.339 1.891.782 2.9-1.009.742zm-5.217-5.432l1.545 1.245-.515 1.925 1.653-1.068 1.68 1.068-.509-1.92 1.539-1.25-1.995-.112-.7-1.847-.711 1.851-1.987.108zM22.25 5.811l-.874.873a5.242 5.242 0 00-1.323 5.177c.285.978.389 2 .306 3.015-.316 3.968-3.234 5.64-8.359 7.707-5.125-2.067-8.043-3.739-8.359-7.707a8.339 8.339 0 01.306-3.015 5.242 5.242 0 00-1.323-5.177l-.874-.873 3.265-3.26a5.833 5.833 0 003.262.932 6.306 6.306 0 003.7-1.383v2.148l-.015-.008a6.868 6.868 0 01-3.693 1.041 6.776 6.776 0 01-2.9-.551l-.722.723-.374.374a7.043 7.043 0 011.4 6.539 6.539 6.539 0 00-.24 2.367c.202 2.533 1.637 3.859 6.565 5.906 4.928-2.047 6.365-3.373 6.565-5.906a6.539 6.539 0 00-.24-2.367 7.043 7.043 0 011.395-6.539l-.459-.46-.659-.659a6.963 6.963 0 01-2.873.573 7.114 7.114 0 01-2.7-.528V2.781a5.488 5.488 0 002.7.7 6.709 6.709 0 003.262-.932l3.261 3.262z"/></svg>
