<svg xmlns="http://www.w3.org/2000/svg" width="24" height="24" fill="currentColor" viewBox="0 0 24 24">
  <path fill-rule="evenodd" d="M21 3a1 1 0 00-1.371-.928l-10 4A1 1 0 009 7v9.202c-.827-.259-1.809-.27-2.772-.027-.97.245-1.83.725-2.42 1.358-.584.626-.997 1.522-.723 2.486.27.951 1.083 1.513 1.896 1.773.831.265 1.82.278 2.791.033.97-.245 1.83-.725 2.42-1.358.477-.512.84-1.205.807-1.967L11 11.677l8-3.2v3.725c-.827-.259-1.809-.27-2.772-.027-.97.245-1.83.725-2.42 1.358-.584.626-.997 1.522-.723 2.486.27.951 1.083 1.513 1.896 1.773.831.265 1.82.278 2.791.033.97-.245 1.83-.725 2.42-1.358.477-.512.84-1.205.807-1.967L21 3zm-2 3.323l-8 3.2V7.677l8-3.2v1.846zm-.589 7.79c-.428-.136-1.034-.165-1.694.001-.66.167-1.16.476-1.446.783-.295.316-.28.514-.262.575.021.074.134.272.58.414.428.137 1.034.166 1.694 0 .66-.167 1.16-.476 1.447-.783.294-.316.278-.514.26-.575-.02-.074-.133-.272-.579-.414zm-10 4c-.428-.136-1.034-.165-1.694.001-.66.167-1.16.476-1.446.783-.295.316-.28.514-.262.575.021.074.134.272.58.414.428.137 1.034.166 1.694 0 .66-.167 1.16-.476 1.447-.783.294-.316.278-.514.26-.575-.02-.074-.133-.272-.579-.414z" clip-rule="evenodd"/>
</svg>
