<svg xmlns="http://www.w3.org/2000/svg" width="24" height="24" fill="currentColor" viewBox="0 0 24 24">
  <path fill-rule="evenodd" d="M2 5a3 3 0 013-3h14a3 3 0 013 3v10a3 3 0 01-3 3h-8v-2h8a1 1 0 001-1V8H4v3H2V5zm2 1h16V5a1 1 0 00-1-1H5a1 1 0 00-1 1v1z" clip-rule="evenodd"/>
  <path d="M5.199 12.714A5.979 5.979 0 016.999 17c0 1.68-.687 3.196-1.8 4.286l1.4 1.428A7.979 7.979 0 008.999 17c0-2.238-.92-4.263-2.4-5.714l-1.4 1.428zM3 17c0-.592-.256-1.123-.667-1.49l1.334-1.491A3.993 3.993 0 015 17c0 1.185-.516 2.25-1.333 2.981l-1.334-1.49c.41-.368.667-.899.667-1.49z"/>
</svg>
