<svg width="24" height="24" xmlns="http://www.w3.org/2000/svg"><path d="M22.001 10.151a1.982 1.982 0 00-1.985-1.982h-1.13l-4.885-6h-12v2h11.172l3.18 4H10.3l-1.926 1.988 4.826 4.527-.535.725c-1.48-.719-6.036-3.054-7.68-4.7a3.355 3.355 0 01-.985-2.54h-2a5.323 5.323 0 001.574 3.957c1.657 1.657 6.333 4.116 8.3 5.093.842.42 1.863.159 2.4-.613l.812-1.234a2.045 2.045 0 00-.744-2.337l-3.087-2.866h8.745v2h-5.02l.583.484c.418.411.7.94.81 1.516h3.627v5h-13v-2.86l-2-1.14v4a2 2 0 002 2h13.015a1.983 1.983 0 001.985-1.984v-9.034z"/></svg>
