<svg xmlns="http://www.w3.org/2000/svg" width="24" height="24" fill="currentColor" viewBox="0 0 24 24">
  <path fill-rule="evenodd" d="M22.772 3.852A3 3 0 0120 8h-3v1h4v2h-4v3h-2v-3h-1V9h1V8h-1V6h1V2h5a3 3 0 012.772 1.852zM17 6h3a1 1 0 000-2h-3v2z" clip-rule="evenodd"/>
  <path d="M4 5H2v2h2V5zM4 21v1h2v-1a3 3 0 100-6H4a1 1 0 110-2h2a1 1 0 011 1h2a3 3 0 00-3-3v-1H4v1a3 3 0 100 6h2a1 1 0 110 2H4a1 1 0 01-1-1H1a3 3 0 003 3zM14 18h-2v2h2v-2zM6 5h2v2H6V5zM12 5h-2v2h2V5zM18 18h-2v2h2v-2zM20 18h2v2h-2v-2z"/>
</svg>
