<svg xmlns="http://www.w3.org/2000/svg" width="24" height="24" fill="currentColor" viewBox="0 0 24 24">
  <path fill-rule="evenodd" d="M2 4a1 1 0 011-1h18a1 1 0 011 1v4a1 1 0 011 1v4a1 1 0 01-1 1v4a1 1 0 01-1 1h-1v-5h-2a1 1 0 01-1-1V9a1 1 0 011-1h2V5H4v8H2V4zm17 8v-2h2v2h-2z" clip-rule="evenodd"/>
  <path d="M3.414 18H8v2H3.414l1.793 1.793-1.414 1.414-3.5-3.5a1 1 0 010-1.414l3.5-3.5 1.414 1.414L3.414 18zM14.586 20l-1.793 1.793 1.414 1.414 3.5-3.5a1 1 0 000-1.414l-3.5-3.5-1.414 1.414L14.586 18H10v2h4.586z"/>
</svg>
