<svg xmlns="http://www.w3.org/2000/svg" width="24" height="24" fill="currentColor" viewBox="0 0 24 24">
  <path d="M3.339 6.998a10.044 10.044 0 013.66-3.66L8 5.07A8.044 8.044 0 005.07 8L3.339 6.998zM2.338 9.412A10.012 10.012 0 002 12c0 .894.118 1.762.338 2.588l1.933-.516A8.013 8.013 0 014 12c0-.718.094-1.412.27-2.072L2.34 9.412zM3.339 17.002a10.044 10.044 0 003.66 3.66L8 18.93A8.044 8.044 0 015.07 16l-1.731 1.002zM20.661 17.002a10.043 10.043 0 01-3.66 3.66L16 18.93A8.044 8.044 0 0018.93 16l1.731 1.002zM9.412 21.662c.826.22 1.694.338 2.588.338.894 0 1.762-.117 2.588-.338l-.516-1.933A8.01 8.01 0 0112 20a8.01 8.01 0 01-2.072-.27l-.516 1.931zM10.5 9a1.5 1.5 0 11-3 0 1.5 1.5 0 013 0zM15 16.5a1.5 1.5 0 100-3 1.5 1.5 0 000 3zM9.207 16.207l7-7-1.414-1.414-7 7 1.414 1.414z"/>
  <path d="M9.412 2.338A10.012 10.012 0 0112 2c.894 0 1.762.118 2.588.338.85.228 1.66.568 2.413 1.002V3.34a10.03 10.03 0 013.66 3.66h-.001c.438.759.774 1.57 1 2.413h.002c.215.805.332 1.65.338 2.52V12c0 .894-.117 1.762-.338 2.588l-1.933-.516A8.01 8.01 0 0020 12v-.057a8 8 0 00-5.93-7.67l.001-.003A8.012 8.012 0 0012 4c-.718 0-1.412.094-2.072.27L9.412 2.34z"/>
</svg>
