<svg xmlns="http://www.w3.org/2000/svg" width="24" height="24" fill="currentColor" viewBox="0 0 24 24">
  <path fill-rule="evenodd" d="M8.13 2.507A1 1 0 019 2h8a1 1 0 01.858 1.514L15.766 7H19v2h-2.955l3.89 5a4.956 4.956 0 01-3.913 8H12v-2h4.022a2.956 2.956 0 002.333-4.771L13.511 9H12a1 1 0 01-.857-.486l-3-5a1 1 0 01-.013-1.007zM13.434 7l1.8-3h-4.468l1.8 3h.868z" clip-rule="evenodd"/>
  <path fill-rule="evenodd" d="M6 22v-3h4v-2H6v-1h3a3 3 0 000-6H4v4H2v2h2v1H2v2h2v3h2zm3-8a1.001 1.001 0 000-2H6v2h3z" clip-rule="evenodd"/>
</svg>
