<svg xmlns="http://www.w3.org/2000/svg" width="24" height="24" fill="currentColor" viewBox="0 0 24 24">
  <path d="M11 8a2 2 0 11-4 0 2 2 0 014 0z"/>
  <path fill-rule="evenodd" d="M8.992 2a6 6 0 015.344 8.744A6.006 6.006 0 0112 13.191V16h1a1 1 0 011 1v4a1 1 0 01-1 1H7a1 1 0 01-1-1v-7.8a6.006 6.006 0 01-.79-9.852A6 6 0 018.992 2zM12 18h-2v-6.075l.598-.262a4.018 4.018 0 001.96-1.834 4 4 0 10-7.11.01 3.998 3.998 0 001.951 1.83l.601.262V20h4v-2zM17.086 14.5l-1.793-1.793 1.414-1.414 1.793 1.793 1.793-1.793 1.414 1.414-1.793 1.793 1.793 1.793-1.414 1.414-1.793-1.793-1.793 1.793-1.414-1.414 1.793-1.793z" clip-rule="evenodd"/>
</svg>
