<svg xmlns="http://www.w3.org/2000/svg" width="24" height="24" fill="currentColor" viewBox="0 0 24 24">
  <path fill-rule="evenodd" d="M3 20h12v2H2a1 1 0 01-1-1V3a1 1 0 011-1h14a1 1 0 011 1v5h-2V4H3v16z" clip-rule="evenodd"/>
  <path d="M4.843 18v-7.82H6.91c.913 0 1.64.29 2.181.87.544.58.822 1.375.833 2.385v1.267c0 1.028-.273 1.835-.817 2.423-.54.583-1.287.875-2.24.875H4.843zm1.579-6.504v5.193h.472c.527 0 .897-.137 1.112-.413.215-.28.328-.76.338-1.44v-1.359c0-.73-.102-1.238-.306-1.525-.204-.29-.551-.442-1.042-.456h-.574zM16.788 14.793c0 1.05-.25 1.864-.747 2.444-.494.58-1.182.87-2.063.87-.877 0-1.566-.286-2.067-.859-.502-.576-.756-1.382-.763-2.417v-1.337c0-1.075.249-1.912.747-2.514.497-.605 1.188-.908 2.073-.908.87 0 1.556.298 2.057.892.501.59.755 1.421.763 2.492v1.338zm-1.585-1.31c0-.706-.1-1.23-.3-1.574-.201-.344-.513-.515-.935-.515-.42 0-.729.166-.93.5-.2.329-.304.832-.31 1.508v1.392c0 .683.101 1.188.305 1.514.204.322.52.483.946.483.411 0 .718-.157.918-.472.2-.319.303-.811.306-1.477v-1.36zM23.442 15.395c-.04.892-.29 1.567-.752 2.025-.462.458-1.113.687-1.955.687-.884 0-1.563-.29-2.035-.87-.47-.583-.704-1.414-.704-2.492V13.43c0-1.074.243-1.901.73-2.481.487-.584 1.164-.876 2.03-.876.853 0 1.5.238 1.94.715.444.476.696 1.16.757 2.051h-1.585c-.014-.551-.1-.93-.257-1.138-.154-.212-.439-.317-.854-.317-.423 0-.722.148-.897.446-.176.293-.269.778-.28 1.455v1.477c0 .777.086 1.31.258 1.6.176.29.475.436.897.436.416 0 .702-.1.86-.3.157-.205.247-.572.268-1.102h1.58z"/>
</svg>
