<svg xmlns="http://www.w3.org/2000/svg" width="25" height="24" fill="currentColor" viewBox="0 0 25 24">
  <path d="M2 20h14v2H3a1 1 0 01-1-1v-1zM18 3v5h-2V4H4v4H2V3a1 1 0 011-1h14a1 1 0 011 1z"/>
  <path fill-rule="evenodd" d="M11.629 17.237c.497-.58.746-1.394.746-2.443v-1.338c-.007-1.07-.261-1.901-.763-2.492-.5-.595-1.187-.892-2.057-.892-.884 0-1.575.303-2.073.908-.498.601-.747 1.44-.747 2.514v1.337c.008 1.035.262 1.84.763 2.417.501.573 1.19.86 2.068.86.88 0 1.568-.29 2.063-.87zm-1.14-5.328c.201.344.302.868.302 1.574v1.359c-.004.666-.106 1.158-.306 1.477-.201.315-.507.473-.919.473-.426 0-.741-.162-.945-.484-.204-.326-.306-.83-.306-1.514v-1.392c.007-.676.11-1.18.311-1.509.2-.333.51-.5.93-.5.422 0 .733.172.934.516zM.98 10.18V18h2.025c.952 0 1.699-.292 2.24-.875.544-.588.816-1.395.816-2.423v-1.267c-.01-1.01-.288-1.805-.832-2.385-.541-.58-1.268-.87-2.181-.87H.98zm1.58 6.51v-5.194h.574c.49.014.838.166 1.042.456.204.287.306.795.306 1.525v1.36c-.01.68-.124 1.16-.338 1.439-.215.276-.586.413-1.112.413h-.473z" clip-rule="evenodd"/>
  <path d="M18.48 15.395c-.04.892-.29 1.567-.752 2.025-.462.458-1.114.687-1.955.687-.885 0-1.563-.29-2.036-.87-.47-.583-.704-1.414-.704-2.492V13.43c0-1.074.244-1.901.73-2.481.488-.584 1.165-.876 2.031-.876.852 0 1.499.238 1.94.715.443.476.695 1.16.756 2.051h-1.584c-.014-.551-.1-.93-.258-1.138-.154-.212-.439-.317-.854-.317-.422 0-.721.148-.897.446-.175.293-.268.778-.28 1.455v1.477c0 .777.087 1.31.259 1.6.175.29.474.436.897.436.415 0 .701-.1.859-.3.157-.205.247-.572.268-1.102h1.58zM22.624 10.18l-1.053 2.685-1.053-2.685h-1.81l1.843 3.878L18.67 18h1.831l1.069-2.734L22.645 18h1.832l-1.88-3.942 1.837-3.878h-1.81z"/>
</svg>
