<svg xmlns="http://www.w3.org/2000/svg" width="24" height="24" fill="currentColor" viewBox="0 0 24 24">
  <path fill-rule="evenodd" d="M3 4a1 1 0 011-1h16a1 1 0 011 1v16a1 1 0 01-1 1H4a1 1 0 01-1-1v-1.528a3 3 0 01.317-1.341l.341-.684a1 1 0 000-.894l-.105-.211a3 3 0 010-2.684l.105-.21a1 1 0 000-.895l-.105-.211a3 3 0 010-2.684l.105-.21a1 1 0 000-.895l-.341-.683A3 3 0 013 5.527V4zm2 1v.528a1 1 0 00.106.447l.341.683a3 3 0 010 2.684l-.105.21a1 1 0 000 .895l.105.211a3 3 0 010 2.684l-.105.21a1 1 0 000 .895l.105.211a3 3 0 010 2.684l-.341.683a1 1 0 00-.106.447V19h14V5H5z" clip-rule="evenodd"/>
  <path fill-rule="evenodd" d="M17 9h-5V7h5v2zM16 13h-4v-2h4v2zM17 17h-5v-2h5v2zM10 11v6H8v-6h2z" clip-rule="evenodd"/>
  <path d="M10.25 8.25a1.25 1.25 0 11-2.5 0 1.25 1.25 0 012.5 0z"/>
</svg>
