<svg width="24" height="24" xmlns="http://www.w3.org/2000/svg"><path d="M17.738 10.673L6.414 21.995H2V17.58L16.929 2.654a1.994 1.994 0 012.82 0l1.594 1.594a1.993 1.993 0 01.001 2.82L18.94 9.471l1.195 1.195a.85.85 0 010 1.202L16.6 15.404l-1.272.018.07-1.22 2.934-2.935-.594-.594zm-.212-2.616l2.399-2.399-1.586-1.587L4 18.408v1.587h1.586L16.324 9.26l-.926-.926L16.6 7.13l.926.927zm3.974 7.938l1.414 1.414-2.043 2.043 2.043 2.043L21.5 22.91l-2.043-2.043-2.043 2.043L16 21.495l2.043-2.043L16 17.41l1.414-1.414 2.043 2.043 2.043-2.043zm-7.5 6H8.484l2-2H16l-2 2z"/></svg>
