<svg xmlns="http://www.w3.org/2000/svg" width="24" height="24" fill="currentColor" viewBox="0 0 24 24">
  <path fill-rule="evenodd" d="M9.704 1.457A6 6 0 0118 7a5 5 0 110 10H6.5a5.5 5.5 0 01-.419-10.984 6 6 0 013.623-4.56zM12 3a4 4 0 00-4 4 1 1 0 01-1 1h-.5a3.5 3.5 0 100 7H18a3 3 0 10-.853-5.876 1 1 0 01-1.257-1.192A4 4 0 0012 3z" clip-rule="evenodd"/>
  <path d="M21.106 23.447l-2-4 1.788-.894 2 4-1.788.894zM9.106 19.447l2 4 1.788-.894-2-4-1.788.894zM16.106 23.447l-2-4 1.788-.894 2 4-1.788.894zM4.106 19.447l2 4 1.788-.894-2-4-1.788.894z"/>
</svg>
