<svg xmlns="http://www.w3.org/2000/svg" width="24" height="24" fill="currentColor" viewBox="0 0 24 24">
  <path d="M10.321 1.266a1 1 0 011.363.004l8 7.5-1.368 1.46-7.32-6.864L4 9.837V10h2v8h4v2H5a1 1 0 01-1-1v-7H3a1 1 0 01-1-1V9.4a1 1 0 01.321-.734l8-7.4z"/>
  <path fill-rule="evenodd" d="M11.293 11.293a1 1 0 01.831-.285l8 1a1 1 0 01.583 1.7L19.414 15l2.293 2.293a1 1 0 010 1.414l-3 3a1 1 0 01-1.414 0L15 19.414l-1.293 1.293a1 1 0 01-1.7-.583l-1-8a1 1 0 01.286-.831zm1.859 1.859l.587 4.695.554-.554a1 1 0 011.414 0L18 19.586 19.586 18l-2.293-2.293a1 1 0 010-1.414l.554-.554-4.695-.587z" clip-rule="evenodd"/>
</svg>
